<svg id="Capa_1" enable-background="new 0 0 512 512" height="512" viewBox="0 0 512 512" width="512" xmlns="http://www.w3.org/2000/svg"><g id="XMLID_2307_"><g id="XMLID_2028_"><path id="XMLID_454_" d="m175.581 413.243c-53.281 0-96.629-43.348-96.629-96.629s43.348-96.629 96.629-96.629 96.629 43.348 96.629 96.629-43.348 96.629-96.629 96.629zm0-173.258c-42.253 0-76.629 34.376-76.629 76.629s34.375 76.629 76.629 76.629 76.629-34.376 76.629-76.629-34.376-76.629-76.629-76.629z"/></g><path id="XMLID_383_" d="m502 141.229h-68c-5.523 0-10 4.477-10 10s4.477 10 10 10h58v88.361l-155.49 27.105c-2.629.458-4.966 1.949-6.491 4.14s-2.11 4.899-1.626 7.524c1.708 9.268 2.574 18.774 2.574 28.256 0 85.678-69.704 155.384-155.382 155.386-85.557.002-155.264-69.6-155.389-155.152-.126-85.345 69.197-155.15 154.533-155.609.144-.001.287-.005.43-.012h40.473v27.811c0 5.523 4.477 10 10 10h52.227c5.523 0 10-4.477 10-10v-27.811h56.141c5.523 0 10-4.477 10-10s-4.477-10-10-10h-66.141c-5.523 0-10 4.477-10 10v27.811h-32.227v-27.811c0-5.523-4.477-10-10-10h-50.966c-.186 0-.371.005-.555.015-35.4.292-69.14 11.018-97.705 30.68l-7.326-7.326c-7.643-7.643-17.805-11.852-28.614-11.852s-20.971 4.209-28.613 11.852c-7.644 7.644-11.853 17.806-11.853 28.615s4.209 20.97 11.852 28.614l9.98 9.98c.034.034.071.062.105.095-14.232 25.724-21.786 54.775-21.741 84.976.068 46.854 18.33 90.853 51.419 123.892 33.089 33.038 77.115 51.232 123.97 51.231 96.706-.002 175.381-78.68 175.381-175.386 0-7.316-.458-14.648-1.364-21.899l154.114-26.866c4.788-.835 8.283-4.991 8.283-9.852v-106.768c.001-5.523-4.476-10-9.999-10zm-476.005 66.454c-7.98-7.979-7.98-20.963 0-28.943 7.979-7.979 20.963-7.979 28.942 0l5.54 5.54c-3.191 2.783-6.298 5.691-9.312 8.724-6.72 6.763-12.812 13.984-18.268 21.581z"/><g id="XMLID_1095_"><path id="XMLID_451_" d="m209.855 326.614c-5.523 0-10-4.478-10-10 0-13.385-10.889-24.273-24.274-24.273-5.523 0-10-4.478-10-10s4.477-10 10-10c24.413 0 44.274 19.861 44.274 44.273 0 5.523-4.477 10-10 10z"/></g><g id="XMLID_1163_"><path id="XMLID_450_" d="m251.746 79.667c-5.523 0-10-4.477-10-10v-39.667c0-5.523 4.477-10 10-10s10 4.477 10 10v39.667c0 5.522-4.477 10-10 10z"/></g><g id="XMLID_767_"><path id="XMLID_449_" d="m194.072 103.556c-2.56 0-5.118-.976-7.071-2.929l-28.048-28.049c-3.905-3.905-3.905-10.237 0-14.142 3.905-3.904 10.237-3.905 14.142 0l28.048 28.049c3.905 3.905 3.905 10.237 0 14.142-1.952 1.952-4.512 2.929-7.071 2.929z"/></g><g id="XMLID_868_"><path id="XMLID_448_" d="m309.418 103.556c-2.559 0-5.119-.976-7.071-2.929-3.905-3.905-3.905-10.237 0-14.143l28.049-28.049c3.905-3.905 10.237-3.905 14.143 0 3.905 3.905 3.905 10.237 0 14.143l-28.049 28.049c-1.953 1.953-4.512 2.929-7.072 2.929z"/></g><g id="XMLID_1963_"><g id="XMLID_1964_"><path id="XMLID_447_" d="m389 161.23c-2.63 0-5.21-1.07-7.07-2.93s-2.93-4.44-2.93-7.07 1.07-5.21 2.93-7.07 4.44-2.93 7.07-2.93 5.21 1.07 7.07 2.93 2.93 4.44 2.93 7.07-1.07 5.21-2.93 7.07-4.44 2.93-7.07 2.93z"/></g></g></g></svg>